<svg xmlns="http://www.w3.org/2000/svg" viewBox="158.7 648.75 251.6 187.0"><path d="M 211.371094 782.542969 C 204.636719 775.808594 200.472656 766.503906 200.472656 756.226562 C 200.472656 745.945312 204.636719 736.640625 211.371094 729.90625 C 218.109375 723.171875 227.410156 719.003906 237.691406 719.003906 C 238.617188 719.003906 239.472656 719.035156 240.253906 719.085938 C 241.160156 719.144531 242.015625 719.238281 242.816406 719.34375 L 247.003906 719.917969 L 247.414062 715.6875 C 248.328125 706.222656 252.796875 697.789062 259.460938 691.746094 C 266.054688 685.765625 274.824219 682.125 284.464844 682.125 C 294.101562 682.125 302.871094 685.765625 309.464844 691.746094 C 314.882812 696.65625 318.847656 703.140625 320.632812 710.476562 L 327.074219 703.726562 C 324.523438 696.761719 320.308594 690.597656 314.921875 685.714844 C 306.859375 678.414062 296.171875 673.957031 284.460938 673.957031 C 272.75 673.957031 262.0625 678.414062 254 685.722656 C 246.828125 692.222656 241.746094 700.992188 239.878906 710.894531 L 237.691406 710.835938 C 225.160156 710.835938 213.808594 715.917969 205.597656 724.128906 C 197.378906 732.347656 192.296875 743.695312 192.296875 756.230469 C 192.296875 768.761719 197.378906 780.113281 205.59375 788.324219 C 205.722656 788.453125 205.851562 788.582031 205.984375 788.714844 L 211.644531 782.816406 C 211.550781 782.726562 211.460938 782.636719 211.371094 782.542969 M 361.273438 704.5625 C 361.097656 706.808594 359.128906 708.492188 356.882812 708.316406 C 354.636719 708.140625 352.957031 706.171875 353.132812 703.925781 L 353.820312 695.21875 L 338.386719 711.398438 C 340.445312 711.722656 342.464844 712.191406 344.425781 712.785156 C 351.65625 714.976562 358.121094 718.925781 363.332031 724.128906 C 371.542969 732.34375 376.625 743.691406 376.625 756.226562 C 376.625 768.757812 371.542969 780.109375 363.332031 788.320312 C 355.117188 796.53125 343.769531 801.613281 331.234375 801.613281 L 237.6875 801.613281 C 232.265625 801.613281 227.0625 800.664062 222.246094 798.917969 C 220.457031 798.269531 218.714844 797.511719 217.035156 796.65625 L 204.855469 809.355469 C 203.292969 810.976562 200.714844 811.027344 199.09375 809.46875 C 197.472656 807.90625 197.421875 805.328125 198.980469 803.707031 L 267.429688 732.335938 C 268.914062 730.785156 271.382812 730.652344 273.027344 732.078125 L 291.859375 748.355469 L 346.921875 690.644531 L 340.730469 691.882812 C 338.519531 692.324219 336.363281 690.886719 335.925781 688.675781 C 335.484375 686.464844 336.921875 684.308594 339.132812 683.871094 L 357.992188 680.09375 L 357.992188 680.097656 C 358.351562 680.027344 358.726562 680.003906 359.109375 680.03125 C 361.355469 680.207031 363.035156 682.175781 362.859375 684.421875 Z M 361.273438 704.5625 Z" fill="#315eff" fill-rule="nonzero"/></svg>