<svg xmlns="http://www.w3.org/2000/svg" xmlns:xlink="http://www.w3.org/1999/xlink" width="2000" zoomAndPan="magnify" viewBox="0 0 1500 1499.999933" height="2000" preserveAspectRatio="xMidYMid meet" version="1.0"><defs><clipPath id="1f10b74e20"><path d="M 658.621094 507.578125 L 841.378906 507.578125 L 841.378906 935 L 658.621094 935 Z M 658.621094 507.578125 " clip-rule="nonzero"/></clipPath><clipPath id="b2f3cf85ee"><path d="M 727.621094 507.578125 L 772.378906 507.578125 C 810.484375 507.578125 841.378906 538.46875 841.378906 576.578125 L 841.378906 865.492188 C 841.378906 903.597656 810.484375 934.492188 772.378906 934.492188 L 727.621094 934.492188 C 689.515625 934.492188 658.621094 903.597656 658.621094 865.492188 L 658.621094 576.578125 C 658.621094 538.46875 689.515625 507.578125 727.621094 507.578125 Z M 727.621094 507.578125 " clip-rule="nonzero"/></clipPath><clipPath id="d0a2ba37e0"><path d="M 0.621094 0.578125 L 183.378906 0.578125 L 183.378906 427.558594 L 0.621094 427.558594 Z M 0.621094 0.578125 " clip-rule="nonzero"/></clipPath><clipPath id="5359687a19"><path d="M 69.621094 0.578125 L 114.378906 0.578125 C 152.484375 0.578125 183.378906 31.46875 183.378906 69.578125 L 183.378906 358.492188 C 183.378906 396.597656 152.484375 427.492188 114.378906 427.492188 L 69.621094 427.492188 C 31.515625 427.492188 0.621094 396.597656 0.621094 358.492188 L 0.621094 69.578125 C 0.621094 31.46875 31.515625 0.578125 69.621094 0.578125 Z M 69.621094 0.578125 " clip-rule="nonzero"/></clipPath><clipPath id="ca21ceba3c"><rect x="0" width="184" y="0" height="428"/></clipPath><clipPath id="49fc1e3ea1"><path d="M 992 529 L 1193 529 L 1193 936 L 992 936 Z M 992 529 " clip-rule="nonzero"/></clipPath><clipPath id="1eeed67c81"><path d="M 988.714844 537.039062 L 1171.09375 525.335938 L 1196.972656 928.566406 L 1014.59375 940.273438 Z M 988.714844 537.039062 " clip-rule="nonzero"/></clipPath><clipPath id="adcd8e01bb"><path d="M 1057.574219 532.621094 L 1102.238281 529.753906 C 1140.265625 527.3125 1173.074219 556.164062 1175.515625 594.195312 L 1192.542969 859.542969 C 1194.984375 897.570312 1166.132812 930.378906 1128.105469 932.820312 L 1083.441406 935.6875 C 1045.410156 938.128906 1012.605469 909.277344 1010.164062 871.246094 L 993.132812 605.898438 C 990.691406 567.871094 1019.542969 535.0625 1057.574219 532.621094 Z M 1057.574219 532.621094 " clip-rule="nonzero"/></clipPath><clipPath id="4ebd2fc688"><path d="M 0 0 L 201 0 L 201 407 L 0 407 Z M 0 0 " clip-rule="nonzero"/></clipPath><clipPath id="5b4aebf594"><path d="M -3.285156 8.039062 L 179.09375 -3.664062 L 204.972656 399.566406 L 22.59375 411.273438 Z M -3.285156 8.039062 " clip-rule="nonzero"/></clipPath><clipPath id="cf98f64c55"><path d="M 65.574219 3.621094 L 110.238281 0.753906 C 148.265625 -1.6875 181.074219 27.164062 183.515625 65.195312 L 200.542969 330.542969 C 202.984375 368.570312 174.132812 401.378906 136.105469 403.820312 L 91.441406 406.6875 C 53.410156 409.128906 20.605469 380.277344 18.164062 342.246094 L 1.132812 76.898438 C -1.308594 38.871094 27.542969 6.0625 65.574219 3.621094 Z M 65.574219 3.621094 " clip-rule="nonzero"/></clipPath><clipPath id="508aee9379"><rect x="0" width="201" y="0" height="407"/></clipPath><clipPath id="b4e1255df7"><path d="M 650 485 L 1181 485 L 1181 1015 L 650 1015 Z M 650 485 " clip-rule="nonzero"/></clipPath><clipPath id="cc6906e3c8"><path d="M 1079.492188 456.617188 L 1208.71875 585.847656 L 750.867188 1043.695312 L 621.640625 914.46875 Z M 1079.492188 456.617188 " clip-rule="nonzero"/></clipPath><clipPath id="07d67048d5"><path d="M 1128.28125 505.410156 L 1159.929688 537.054688 C 1186.875 564 1186.875 607.691406 1159.929688 634.636719 L 799.972656 994.59375 C 773.027344 1021.539062 729.339844 1021.539062 702.390625 994.59375 L 670.746094 962.945312 C 643.796875 936 643.796875 892.308594 670.746094 865.363281 L 1030.699219 505.410156 C 1057.644531 478.460938 1101.335938 478.460938 1128.28125 505.410156 Z M 1128.28125 505.410156 " clip-rule="nonzero"/></clipPath><clipPath id="a2acd7cb50"><path d="M 0 0 L 531 0 L 531 530 L 0 530 Z M 0 0 " clip-rule="nonzero"/></clipPath><clipPath id="8aa548a9db"><path d="M 429.492188 -28.382812 L 558.71875 100.847656 L 100.867188 558.695312 L -28.359375 429.46875 Z M 429.492188 -28.382812 " clip-rule="nonzero"/></clipPath><clipPath id="a7ffd3f96f"><path d="M 478.28125 20.410156 L 509.929688 52.054688 C 536.875 79 536.875 122.691406 509.929688 149.636719 L 149.972656 509.59375 C 123.027344 536.539062 79.339844 536.539062 52.390625 509.59375 L 20.746094 477.945312 C -6.203125 451 -6.203125 407.308594 20.746094 380.363281 L 380.699219 20.410156 C 407.644531 -6.539062 451.335938 -6.539062 478.28125 20.410156 Z M 478.28125 20.410156 " clip-rule="nonzero"/></clipPath><clipPath id="ddc25f05a8"><rect x="0" width="531" y="0" height="530"/></clipPath><clipPath id="b5e6c6a065"><path d="M 1004 813 L 1207 813 L 1207 1015 L 1004 1015 Z M 1004 813 " clip-rule="nonzero"/></clipPath><clipPath id="32d5268779"><path d="M 1097.242188 784.875 L 1234.480469 905.558594 L 1113.324219 1043.335938 L 976.082031 922.648438 Z M 1097.242188 784.875 " clip-rule="nonzero"/></clipPath><clipPath id="941b3ae637"><path d="M 1149.054688 830.4375 L 1182.664062 859.992188 C 1211.28125 885.160156 1214.078125 928.757812 1188.914062 957.375 L 1159.308594 991.042969 C 1134.144531 1019.660156 1090.542969 1022.457031 1061.925781 997.292969 L 1028.316406 967.734375 C 999.703125 942.570312 996.902344 898.972656 1022.070312 870.355469 L 1051.675781 836.6875 C 1076.839844 808.070312 1120.4375 805.273438 1149.054688 830.4375 Z M 1149.054688 830.4375 " clip-rule="nonzero"/></clipPath><clipPath id="fd1ba8de37"><path d="M 0 0 L 203 0 L 203 202 L 0 202 Z M 0 0 " clip-rule="nonzero"/></clipPath><clipPath id="cd4bdfaebb"><path d="M 93.242188 -28.125 L 230.480469 92.558594 L 109.324219 230.335938 L -27.917969 109.648438 Z M 93.242188 -28.125 " clip-rule="nonzero"/></clipPath><clipPath id="d84ff541ea"><path d="M 145.054688 17.4375 L 178.664062 46.992188 C 207.28125 72.160156 210.078125 115.757812 184.914062 144.375 L 155.308594 178.042969 C 130.144531 206.660156 86.542969 209.457031 57.925781 184.292969 L 24.316406 154.734375 C -4.296875 129.570312 -7.097656 85.972656 18.070312 57.355469 L 47.675781 23.6875 C 72.839844 -4.929688 116.4375 -7.726562 145.054688 17.4375 Z M 145.054688 17.4375 " clip-rule="nonzero"/></clipPath><clipPath id="2259fc7c46"><rect x="0" width="203" y="0" height="202"/></clipPath><clipPath id="42e3f9c481"><path d="M 319 485 L 850 485 L 850 1015 L 319 1015 Z M 319 485 " clip-rule="nonzero"/></clipPath><clipPath id="a8050bf3e3"><path d="M 748.816406 456.617188 L 878.042969 585.847656 L 420.191406 1043.695312 L 290.964844 914.46875 Z M 748.816406 456.617188 " clip-rule="nonzero"/></clipPath><clipPath id="28354f9771"><path d="M 797.605469 505.410156 L 829.253906 537.054688 C 856.199219 564 856.199219 607.691406 829.253906 634.636719 L 469.296875 994.59375 C 442.351562 1021.539062 398.664062 1021.539062 371.714844 994.59375 L 340.070312 962.945312 C 313.121094 936 313.121094 892.308594 340.070312 865.363281 L 700.023438 505.410156 C 726.96875 478.460938 770.660156 478.460938 797.605469 505.410156 Z M 797.605469 505.410156 " clip-rule="nonzero"/></clipPath><clipPath id="ab1fa4378f"><path d="M 0 0 L 531 0 L 531 530 L 0 530 Z M 0 0 " clip-rule="nonzero"/></clipPath><clipPath id="8b3a242c78"><path d="M 429.816406 -28.382812 L 559.042969 100.847656 L 101.191406 558.695312 L -28.035156 429.46875 Z M 429.816406 -28.382812 " clip-rule="nonzero"/></clipPath><clipPath id="7e4f9cdeb6"><path d="M 478.605469 20.410156 L 510.253906 52.054688 C 537.199219 79 537.199219 122.691406 510.253906 149.636719 L 150.296875 509.59375 C 123.351562 536.539062 79.664062 536.539062 52.714844 509.59375 L 21.070312 477.945312 C -5.878906 451 -5.878906 407.308594 21.070312 380.363281 L 381.023438 20.410156 C 407.96875 -6.539062 451.660156 -6.539062 478.605469 20.410156 Z M 478.605469 20.410156 " clip-rule="nonzero"/></clipPath><clipPath id="cc645617c0"><rect x="0" width="531" y="0" height="530"/></clipPath></defs><g clip-path="url(#1f10b74e20)"><g clip-path="url(#b2f3cf85ee)"><g transform="matrix(1, 0, 0, 1, 658, 507)"><g clip-path="url(#ca21ceba3c)"><g clip-path="url(#d0a2ba37e0)"><g clip-path="url(#5359687a19)"><path fill="#cbd4ff" d="M 0.621094 0.578125 L 183.378906 0.578125 L 183.378906 427.484375 L 0.621094 427.484375 Z M 0.621094 0.578125 " fill-opacity="1" fill-rule="nonzero"/></g></g></g></g></g></g><g clip-path="url(#49fc1e3ea1)"><g clip-path="url(#1eeed67c81)"><g clip-path="url(#adcd8e01bb)"><g transform="matrix(1, 0, 0, 1, 992, 529)"><g clip-path="url(#508aee9379)"><g clip-path="url(#4ebd2fc688)"><g clip-path="url(#5b4aebf594)"><g clip-path="url(#cf98f64c55)"><path fill="#cbd4ff" d="M -3.285156 8.039062 L 179.09375 -3.664062 L 204.972656 399.566406 L 22.59375 411.273438 Z M -3.285156 8.039062 " fill-opacity="1" fill-rule="nonzero"/></g></g></g></g></g></g></g></g><g clip-path="url(#b4e1255df7)"><g clip-path="url(#cc6906e3c8)"><g clip-path="url(#07d67048d5)"><g transform="matrix(1, 0, 0, 1, 650, 485)"><g clip-path="url(#ddc25f05a8)"><g clip-path="url(#a2acd7cb50)"><g clip-path="url(#8aa548a9db)"><g clip-path="url(#a7ffd3f96f)"><path fill="#6c4cff" d="M 429.492188 -28.382812 L 558.71875 100.847656 L 101.371094 558.191406 L -27.855469 428.964844 Z M 429.492188 -28.382812 " fill-opacity="1" fill-rule="nonzero"/></g></g></g></g></g></g></g></g><g clip-path="url(#b5e6c6a065)"><g clip-path="url(#32d5268779)"><g clip-path="url(#941b3ae637)"><g transform="matrix(1, 0, 0, 1, 1004, 813)"><g clip-path="url(#2259fc7c46)"><g clip-path="url(#fd1ba8de37)"><g clip-path="url(#cd4bdfaebb)"><g clip-path="url(#d84ff541ea)"><path fill="#6c4cff" d="M 93.242188 -28.125 L 230.480469 92.558594 L 109.792969 229.796875 L -27.445312 109.113281 Z M 93.242188 -28.125 " fill-opacity="1" fill-rule="nonzero"/></g></g></g></g></g></g></g></g><g clip-path="url(#42e3f9c481)"><g clip-path="url(#a8050bf3e3)"><g clip-path="url(#28354f9771)"><g transform="matrix(1, 0, 0, 1, 319, 485)"><g clip-path="url(#cc645617c0)"><g clip-path="url(#ab1fa4378f)"><g clip-path="url(#8b3a242c78)"><g clip-path="url(#7e4f9cdeb6)"><path fill="#6c4cff" d="M 429.816406 -28.382812 L 559.042969 100.847656 L 101.695312 558.191406 L -27.53125 428.964844 Z M 429.816406 -28.382812 " fill-opacity="1" fill-rule="nonzero"/></g></g></g></g></g></g></g></g></svg>